HIERARCHY
ROOT hips
{
	OFFSET -0.003675 0.299928 -0.021708
	CHANNELS 6 Xposition Yposition Zposition Xrotation Yrotation Zrotation
	JOINT LowerBack
	{
		OFFSET 0.000919 0.177588 0.009275
		CHANNELS 3 Xrotation Yrotation Zrotation
		JOINT spine
		{
			OFFSET 0.000919 0.177588 0.009275
			CHANNELS 3 Xrotation Yrotation Zrotation
			JOINT chest
			{
				OFFSET 0.000456 0.100015 0.004638
				CHANNELS 3 Xrotation Yrotation Zrotation
				JOINT neck
				{
					OFFSET 0.000456 0.100015 0.004638
					CHANNELS 3 Xrotation Yrotation Zrotation
					JOINT head
					{
						OFFSET 0.000924 0.155147 0.009274
						CHANNELS 6 Xposition Yposition Zposition Xrotation Yrotation Zrotation
						End Site
						{
							OFFSET 0.000000 0.153400 0.000000
						}
					}
				}
				JOINT shoulder.L
				{
					OFFSET 0.019937 0.078966 0.057518
					CHANNELS 6 Xposition Yposition Zposition Yrotation Xrotation Zrotation
					JOINT upper_arm.L
					{
						OFFSET 0.177024 -0.020465 -0.095062
						CHANNELS 6 Xposition Yposition Zposition Xrotation Yrotation Zrotation
						JOINT forearm.L
						{
							OFFSET 0.247100 -0.135500 -0.061800
							CHANNELS 3 Xrotation Yrotation Zrotation
							JOINT hand.L
							{
								OFFSET 0.217000 -0.143000 0.039300
								CHANNELS 3 Xrotation Yrotation Zrotation
								JOINT palm.01.L
								{
									OFFSET 0.021770 -0.038291 0.012954
									CHANNELS 6 Xposition Yposition Zposition Yrotation Xrotation Zrotation
									JOINT f_index.01.L
									{
										OFFSET 0.053215 -0.044137 0.008236
										CHANNELS 3 Xrotation Yrotation Zrotation
										JOINT f_index.02.L
										{
											OFFSET 0.036108 -0.024723 -0.010656
											CHANNELS 3 Xrotation Yrotation Zrotation
											JOINT f_index.03.L
											{
												OFFSET 0.021342 -0.014948 -0.010846
												CHANNELS 3 Xrotation Yrotation Zrotation
												End Site
												{
													OFFSET 0.015600 -0.009860 -0.013421
												}
											}
										}
									}
									JOINT thumb.01.L
									{
										OFFSET -0.009090 -0.002348 -0.024223
										CHANNELS 6 Xposition Yposition Zposition Xrotation Yrotation Zrotation
										JOINT thumb.02.L
										{
											OFFSET 0.019713 -0.035076 -0.011120
											CHANNELS 3 Xrotation Yrotation Zrotation
											JOINT thumb.03.L
											{
												OFFSET 0.024877 -0.021748 -0.005176
												CHANNELS 3 Xrotation Yrotation Zrotation
												End Site
												{
													OFFSET 0.016125 -0.013029 -0.001569
												}
											}
										}
									}
								}
								JOINT palm.02.L
								{
									OFFSET 0.032823 -0.025104 0.012281
									CHANNELS 6 Xposition Yposition Zposition Yrotation Xrotation Zrotation
									JOINT f_middle.01.L
									{
										OFFSET 0.055723 -0.038469 0.008037
										CHANNELS 3 Xrotation Yrotation Zrotation
										JOINT f_middle.02.L
										{
											OFFSET 0.038167 -0.027473 -0.015582
											CHANNELS 3 Xrotation Yrotation Zrotation
											JOINT f_middle.03.L
											{
												OFFSET 0.021707 -0.016587 -0.017037
												CHANNELS 3 Xrotation Yrotation Zrotation
												End Site
												{
													OFFSET 0.014112 -0.010584 -0.014294
												}
											}
										}
									}
								}
								JOINT palm.03.L
								{
									OFFSET 0.039230 -0.011402 0.008390
									CHANNELS 6 Xposition Yposition Zposition Yrotation Xrotation Zrotation
									JOINT f_ring.01.L
									{
										OFFSET 0.061796 -0.031470 0.007910
										CHANNELS 3 Xrotation Yrotation Zrotation
										JOINT f_ring.02.L
										{
											OFFSET 0.033092 -0.023401 -0.019127
											CHANNELS 3 Xrotation Yrotation Zrotation
											JOINT f_ring.03.L
											{
												OFFSET 0.021392 -0.015362 -0.017824
												CHANNELS 3 Xrotation Yrotation Zrotation
												End Site
												{
													OFFSET 0.008670 -0.007297 -0.014686
												}
											}
										}
									}
								}
								JOINT palm.04.L
								{
									OFFSET 0.043417 0.002450 0.002889
									CHANNELS 6 Xposition Yposition Zposition Yrotation Xrotation Zrotation
									JOINT f_pinky.01.L
									{
										OFFSET 0.069986 -0.026156 0.003627
										CHANNELS 3 Xrotation Yrotation Zrotation
										JOINT f_pinky.02.L
										{
											OFFSET 0.018520 -0.012813 -0.016429
											CHANNELS 3 Xrotation Yrotation Zrotation
											JOINT f_pinky.03.L
											{
												OFFSET 0.013822 -0.009796 -0.014947
												CHANNELS 3 Xrotation Yrotation Zrotation
												End Site
												{
													OFFSET 0.007238 -0.006103 -0.011657
												}
											}
										}
									}
								}
							}
						}
					}
				}
				JOINT shoulder.R
				{
					OFFSET -0.016662 0.078957 0.057696
					CHANNELS 6 Xposition Yposition Zposition Yrotation Xrotation Zrotation
					JOINT upper_arm.R
					{
						OFFSET -0.176972 -0.020537 -0.095144
						CHANNELS 6 Xposition Yposition Zposition Xrotation Yrotation Zrotation
						JOINT forearm.R
						{
							OFFSET -0.247100 -0.135500 -0.061800
							CHANNELS 3 Xrotation Yrotation Zrotation
							JOINT hand.R
							{
								OFFSET -0.217000 -0.143000 0.039300
								CHANNELS 3 Xrotation Yrotation Zrotation
								JOINT palm.01.R
								{
									OFFSET -0.021773 -0.038278 0.012988
									CHANNELS 6 Xposition Yposition Zposition Yrotation Xrotation Zrotation
									JOINT f_index.01.R
									{
										OFFSET -0.053212 -0.044139 0.008249
										CHANNELS 3 Xrotation Yrotation Zrotation
										JOINT f_index.02.R
										{
											OFFSET -0.036049 -0.024835 -0.010634
											CHANNELS 3 Xrotation Yrotation Zrotation
											JOINT f_index.03.R
											{
												OFFSET -0.021371 -0.014881 -0.010866
												CHANNELS 3 Xrotation Yrotation Zrotation
												End Site
												{
													OFFSET -0.015584 -0.009883 -0.013422
												}
											}
										}
									}
									JOINT thumb.01.R
									{
										OFFSET 0.009113 -0.002381 -0.024211
										CHANNELS 6 Xposition Yposition Zposition Xrotation Yrotation Zrotation
										JOINT thumb.02.R
										{
											OFFSET -0.019694 -0.035097 -0.011088
											CHANNELS 3 Xrotation Yrotation Zrotation
											JOINT thumb.03.R
											{
												OFFSET -0.024867 -0.021762 -0.005168
												CHANNELS 3 Xrotation Yrotation Zrotation
												End Site
												{
													OFFSET -0.016120 -0.013036 -0.001565
												}
											}
										}
									}
								}
								JOINT palm.02.R
								{
									OFFSET -0.032828 -0.025095 0.012286
									CHANNELS 6 Xposition Yposition Zposition Yrotation Xrotation Zrotation
									JOINT f_middle.01.R
									{
										OFFSET -0.055721 -0.038472 0.008040
										CHANNELS 3 Xrotation Yrotation Zrotation
										JOINT f_middle.02.R
										{
											OFFSET -0.038101 -0.027593 -0.015557
											CHANNELS 3 Xrotation Yrotation Zrotation
											JOINT f_middle.03.R
											{
												OFFSET -0.021730 -0.016530 -0.017054
												CHANNELS 3 Xrotation Yrotation Zrotation
												End Site
												{
													OFFSET -0.014096 -0.010608 -0.014293
												}
											}
										}
									}
								}
								JOINT palm.03.R
								{
									OFFSET -0.039192 -0.011488 0.008390
									CHANNELS 6 Xposition Yposition Zposition Yrotation Xrotation Zrotation
									JOINT f_ring.01.R
									{
										OFFSET -0.061839 -0.031387 0.007876
										CHANNELS 3 Xrotation Yrotation Zrotation
										JOINT f_ring.02.R
										{
											OFFSET -0.033068 -0.023437 -0.019125
											CHANNELS 3 Xrotation Yrotation Zrotation
											JOINT f_ring.03.R
											{
												OFFSET -0.021371 -0.015393 -0.017822
												CHANNELS 3 Xrotation Yrotation Zrotation
												End Site
												{
													OFFSET -0.008654 -0.007321 -0.014684
												}
											}
										}
									}
								}
								JOINT palm.04.R
								{
									OFFSET -0.043421 0.002443 0.002845
									CHANNELS 6 Xposition Yposition Zposition Yrotation Xrotation Zrotation
									JOINT f_pinky.01.R
									{
										OFFSET -0.069983 -0.026169 0.003599
										CHANNELS 3 Xrotation Yrotation Zrotation
										JOINT f_pinky.02.R
										{
											OFFSET -0.018501 -0.012842 -0.016428
											CHANNELS 3 Xrotation Yrotation Zrotation
											JOINT f_pinky.03.R
											{
												OFFSET -0.013806 -0.009821 -0.014946
												CHANNELS 3 Xrotation Yrotation Zrotation
												End Site
												{
													OFFSET -0.007226 -0.006121 -0.011655
												}
											}
										}
									}
								}
							}
						}
					}
				}
			}
		}
	}
	JOINT pelvis.L
	{
		OFFSET 0.000000 0.000000 0.000000
		CHANNELS 6 Xposition Yposition Zposition Xrotation Yrotation Zrotation
		JOINT thigh.L
		{
			OFFSET 0.101675 0.001054 -0.000000
			CHANNELS 3 Xrotation Yrotation Zrotation
			JOINT shin.L
			{
				OFFSET 0.000000 -0.534800 0.041000
				CHANNELS 3 Xrotation Yrotation Zrotation
				JOINT foot.L
				{
					OFFSET 0.000000 -0.452000 -0.044800
					CHANNELS 3 Xrotation Yrotation Zrotation
					JOINT toe.L
					{
						OFFSET -0.000000 -0.068500 0.109600
						CHANNELS 3 Xrotation Yrotation Zrotation
						End Site
						{
							OFFSET -0.000000 0.000000 0.067200
						}
					}
				}
				JOINT heel.L
				{
					OFFSET 0.000000 -0.452000 -0.044800
					CHANNELS 3 Xrotation Yrotation Zrotation
					JOINT heel.02.L
					{
						OFFSET -0.038000 -0.085200 0.016200
						CHANNELS 6 Xposition Yposition Zposition Xrotation Yrotation Zrotation
						End Site
						{
							OFFSET 0.080000 -0.000000 0.000000
						}
					}
				}
			}
		}
	}
	JOINT pelvis.R
	{
		OFFSET 0.000000 0.000000 0.000000
		CHANNELS 6 Xposition Yposition Zposition Xrotation Yrotation Zrotation
		JOINT thigh.R
		{
			OFFSET -0.094325 0.001054 0.000000
			CHANNELS 3 Xrotation Yrotation Zrotation
			JOINT shin.R
			{
				OFFSET 0.000000 -0.534800 0.041000
				CHANNELS 3 Xrotation Yrotation Zrotation
				JOINT foot.R
				{
					OFFSET 0.000000 -0.452000 -0.044800
					CHANNELS 3 Xrotation Yrotation Zrotation
					JOINT toe.R
					{
						OFFSET -0.000000 -0.068500 0.109600
						CHANNELS 3 Xrotation Yrotation Zrotation
						End Site
						{
							OFFSET -0.000000 0.000000 0.067200
						}
					}
				}
				JOINT heel.R
				{
					OFFSET 0.000000 -0.452000 -0.044800
					CHANNELS 3 Xrotation Yrotation Zrotation
					JOINT heel.02.R
					{
						OFFSET 0.038000 -0.085200 0.016200
						CHANNELS 6 Xposition Yposition Zposition Xrotation Yrotation Zrotation
						End Site
						{
							OFFSET -0.080000 0.000000 -0.000000
						}
					}
				}
			}
		}
	}
}
MOTION
Frames: 4
Frame Time: 0.041667
-0.003675 0.299928 -0.021708 0.000000 -0.000000 0.000000 -0.000001 0.000000 0.000000 -0.000000 0.000000 0.000000 -0.000000 0.000000 0.000000 -0.000000 -0.000000 -0.000000 0.000924 0.155147 0.009274 -0.000001 -0.000000 -0.000000 0.019937 0.078966 0.057518 0.000001 0.000001 -0.000005 0.177024 -0.020465 -0.095062 -0.000006 -0.000003 0.000015 -0.000009 -0.000004 -0.000009 -0.000000 0.000000 0.000001 0.021770 -0.038291 0.012954 0.000001 -0.000001 0.000001 -0.000001 -0.000001 -0.000002 -0.000001 -0.000000 0.000007 -0.000000 0.000000 0.000003 -0.009090 -0.002348 -0.024224 -0.000002 0.000001 0.000001 0.000001 -0.000001 0.000001 -0.000000 0.000000 -0.000001 0.032823 -0.025104 0.012281 0.000000 -0.000000 0.000000 0.000001 0.000004 -0.000003 -0.000001 -0.000000 -0.000000 -0.000001 -0.000003 0.000003 0.039230 -0.011402 0.008390 -0.000000 -0.000000 0.000008 0.000001 0.000001 -0.000000 -0.000001 0.000003 -0.000001 0.000002 0.000002 -0.000000 0.043417 0.002450 0.002889 -0.000000 0.000001 0.000002 -0.000001 -0.000003 0.000001 -0.000000 0.000003 -0.000000 -0.000000 -0.000003 0.000001 -0.016662 0.078956 0.057696 -0.000001 0.000002 0.000011 -0.176972 -0.020537 -0.095144 0.000001 -0.000003 -0.000005 -0.000006 0.000005 -0.000014 -0.000001 -0.000000 0.000000 -0.021773 -0.038278 0.012988 0.000000 -0.000001 -0.000003 -0.000001 0.000001 -0.000003 -0.000001 -0.000000 0.000001 0.000001 0.000002 0.000007 0.009113 -0.002381 -0.024211 0.000002 -0.000001 0.000004 -0.000000 0.000001 0.000002 0.000000 0.000000 -0.000003 -0.032828 -0.025095 0.012286 0.000001 -0.000001 -0.000001 -0.000001 0.000003 -0.000003 -0.000002 0.000004 -0.000001 0.000001 -0.000002 -0.000000 -0.039192 -0.011488 0.008390 0.000000 0.000000 0.000001 -0.000000 0.000003 -0.000003 -0.000001 0.000001 0.000002 -0.000001 0.000000 -0.000003 -0.043421 0.002443 0.002844 -0.000000 -0.000001 0.000000 -0.000007 0.000003 -0.000002 -0.000003 -0.000000 -0.000000 0.000001 -0.000000 0.000001 -0.000000 0.000000 -0.000000 -0.000001 -0.000000 0.000001 0.000009 -0.000202 0.000014 -0.000026 0.000202 -0.000015 0.000000 -0.000000 -0.000000 0.000002 -0.000000 -0.000000 0.000000 0.000000 -0.000000 -0.038000 -0.085200 0.016200 0.000000 0.000000 0.000000 0.000000 -0.000000 -0.000000 -0.000001 0.000000 -0.000004 0.000008 -0.000013 0.000005 -0.000012 0.000013 -0.000001 -0.000003 -0.000000 -0.000000 0.000000 -0.000000 -0.000000 0.000002 -0.000000 -0.000000 0.038000 -0.085200 0.016200 0.000002 -0.000000 0.000000 
0.012054 0.271137 -0.027106 81.757153 -26.135516 76.954369 0.000004 0.000000 0.000000 0.000001 0.000001 -0.000001 -0.000002 -0.000000 -0.000001 0.000001 0.000000 -0.000001 0.000924 0.155147 0.009274 11.148166 -0.020299 8.177344 0.019937 0.078966 0.057518 -23.972972 2.078913 37.607725 0.177024 -0.020465 -0.095062 -73.009313 29.092289 -56.686352 1.339354 -0.184825 -10.330703 -0.000001 -0.000001 -0.000002 0.021770 -0.038291 0.012954 -0.000000 0.000001 0.000001 -0.000000 -0.000001 -0.000000 0.000001 -0.000001 0.000005 -0.000000 0.000002 -0.000003 -0.009090 -0.002348 -0.024224 0.000001 -0.000002 -0.000001 0.000001 0.000001 -0.000000 -0.000000 -0.000001 0.000004 0.032823 -0.025104 0.012281 -0.000001 0.000002 0.000007 -0.000000 0.000000 -0.000007 -0.000000 0.000000 0.000001 -0.000000 0.000001 -0.000001 0.039230 -0.011402 0.008390 0.000002 0.000001 0.000006 -0.000001 -0.000000 -0.000004 0.000000 0.000001 -0.000001 -0.000000 -0.000002 -0.000000 0.043417 0.002450 0.002889 -0.000002 0.000001 0.000002 -0.000001 -0.000003 -0.000000 0.000002 -0.000000 -0.000001 -0.000002 -0.000001 0.000000 -0.016662 0.078956 0.057696 -7.502439 2.000753 -29.973718 -0.176972 -0.020537 -0.095144 -54.299621 -20.759110 61.807236 0.806760 2.580081 23.287670 0.000000 0.000000 -0.000002 -0.021773 -0.038278 0.012988 -0.000001 -0.000002 -0.000005 -0.000001 0.000001 0.000001 -0.000003 -0.000000 -0.000006 -0.000003 0.000002 -0.000001 0.009113 -0.002381 -0.024212 -0.000002 -0.000000 0.000001 -0.000001 -0.000001 -0.000001 0.000002 0.000001 -0.000003 -0.032828 -0.025095 0.012286 0.000001 -0.000002 -0.000001 0.000002 0.000003 0.000002 -0.000001 0.000002 -0.000001 -0.000003 0.000006 -0.000005 -0.039192 -0.011488 0.008390 -0.000001 -0.000000 0.000003 -0.000001 0.000003 -0.000003 0.000002 0.000000 0.000002 -0.000001 0.000000 -0.000003 -0.043421 0.002443 0.002845 -0.000001 -0.000001 0.000000 -0.000003 0.000007 -0.000001 0.000002 -0.000004 0.000004 -0.000000 0.000004 0.000000 0.000000 0.000000 -0.000000 -2.141753 0.667386 -8.351569 -100.868295 -0.538489 -3.131844 66.644806 0.544148 -5.496465 -0.000003 -0.000002 0.000001 0.000003 0.000002 -0.000001 0.000000 -0.000001 -0.000001 -0.038000 -0.085200 0.016200 -0.000001 0.000000 -0.000001 -0.000000 0.000000 0.000000 -2.071764 0.657855 -7.118190 -107.903486 1.084923 9.781398 71.501385 1.745106 -17.900498 -0.000003 0.000001 -0.000000 0.000002 0.000001 0.000000 0.000007 -0.000001 0.000001 0.038000 -0.085200 0.016200 -0.000001 -0.000000 0.000000 
0.011914 0.269978 -0.027377 81.020933 -26.615804 77.559277 0.000002 -0.000000 0.000000 0.000002 -0.000000 -0.000000 0.000000 -0.000001 0.000000 -0.000000 0.000000 0.000000 0.000924 0.155148 0.009274 11.888200 -0.022006 8.757152 0.019937 0.078966 0.057518 -23.274857 1.808216 37.086810 0.177025 -0.020465 -0.095062 -68.714681 28.878173 -58.993348 1.999398 0.539495 -9.938781 -0.000003 0.000001 0.000003 0.021770 -0.038291 0.012954 0.000001 -0.000000 -0.000004 -0.000001 -0.000003 0.000005 0.000001 -0.000000 0.000009 0.000000 0.000001 -0.000000 -0.009090 -0.002348 -0.024224 0.000000 -0.000002 0.000006 -0.000000 0.000001 0.000005 0.000000 0.000000 -0.000002 0.032823 -0.025104 0.012281 0.000000 -0.000000 0.000004 -0.000001 0.000002 -0.000005 -0.000004 -0.000005 0.000003 -0.000001 -0.000005 0.000003 0.039230 -0.011402 0.008390 0.000001 -0.000001 0.000004 0.000000 -0.000001 0.000003 0.000001 0.000006 -0.000000 0.000002 -0.000002 0.000003 0.043417 0.002450 0.002889 -0.000000 0.000002 -0.000002 0.000000 -0.000003 -0.000000 -0.000001 0.000006 -0.000002 -0.000002 -0.000003 -0.000001 -0.016662 0.078957 0.057696 -8.248630 2.158765 -30.229447 -0.176972 -0.020537 -0.095144 -53.013565 -20.418678 62.148574 2.761516 0.948668 21.398132 -0.000000 0.000002 0.000002 -0.021773 -0.038278 0.012988 -0.000001 -0.000001 -0.000005 -0.000001 0.000003 0.000002 -0.000001 0.000001 -0.000001 -0.000003 0.000005 0.000002 0.009114 -0.002381 -0.024211 -0.000001 -0.000002 -0.000001 0.000003 -0.000000 0.000000 0.000000 0.000000 -0.000001 -0.032828 -0.025095 0.012286 0.000001 -0.000000 -0.000003 -0.000000 0.000001 -0.000003 0.000001 0.000001 0.000001 -0.000001 0.000001 -0.000006 -0.039192 -0.011488 0.008390 -0.000000 0.000001 0.000001 -0.000000 0.000003 -0.000003 0.000002 -0.000001 0.000003 0.000000 -0.000005 -0.000000 -0.043421 0.002443 0.002844 -0.000001 0.000001 -0.000001 -0.000006 0.000003 -0.000002 -0.000002 -0.000002 -0.000002 0.000000 0.000003 -0.000001 0.000000 0.000000 -0.000000 -2.153218 0.692431 -8.607357 -99.620870 -0.546916 -3.217416 66.080960 0.494022 -4.988539 -0.000003 0.000003 -0.000003 -0.000004 -0.000001 0.000001 -0.000002 0.000003 -0.000001 -0.038000 -0.085200 0.016200 0.000000 0.000001 0.000001 0.000000 0.000000 -0.000000 -2.081995 0.682409 -7.374031 -107.600799 1.121040 10.248621 70.485660 1.889931 -19.444550 -0.000002 0.000002 -0.000002 0.000007 -0.000000 0.000003 0.000007 -0.000001 0.000002 0.038000 -0.085200 0.016200 -0.000001 0.000004 -0.000002 
0.011010 0.269008 -0.027855 78.532279 -26.115983 74.899062 -0.000002 -0.000000 0.000001 0.000002 0.000001 0.000002 0.000001 -0.000000 -0.000001 0.000001 -0.000001 0.000000 0.000924 0.155147 0.009274 12.669449 -0.021981 7.303662 0.019937 0.078966 0.057518 -20.605050 1.701803 36.814911 0.177025 -0.020466 -0.095062 -66.471469 31.414444 -62.297233 1.911864 0.392557 -10.340042 -0.000001 0.000000 0.000007 0.021770 -0.038291 0.012954 0.000001 -0.000000 -0.000002 -0.000000 -0.000002 0.000001 0.000000 0.000001 0.000005 -0.000001 0.000000 0.000003 -0.009090 -0.002348 -0.024224 -0.000000 -0.000002 0.000001 -0.000000 0.000001 -0.000000 -0.000000 0.000001 0.000001 0.032823 -0.025104 0.012281 -0.000001 -0.000000 0.000002 0.000001 0.000001 -0.000003 -0.000002 -0.000002 -0.000000 0.000001 -0.000003 -0.000001 0.039230 -0.011402 0.008390 0.000001 0.000000 0.000003 0.000002 -0.000002 0.000001 -0.000002 0.000001 0.000003 0.000004 -0.000003 0.000001 0.043417 0.002450 0.002889 -0.000001 0.000003 -0.000002 0.000000 -0.000003 -0.000000 -0.000000 0.000004 -0.000001 0.000000 -0.000005 0.000000 -0.016662 0.078957 0.057696 -6.056219 1.992110 -30.799334 -0.176972 -0.020537 -0.095144 -52.569282 -23.311752 65.232466 2.923452 0.951545 22.454681 -0.000001 0.000001 0.000000 -0.021773 -0.038278 0.012988 0.000000 0.000000 -0.000003 -0.000002 0.000002 -0.000001 -0.000003 0.000003 -0.000007 0.000001 -0.000005 0.000002 0.009113 -0.002381 -0.024212 0.000000 0.000001 0.000003 -0.000000 -0.000004 0.000000 -0.000001 0.000002 -0.000004 -0.032828 -0.025095 0.012286 0.000001 0.000001 -0.000003 -0.000000 0.000001 0.000002 -0.000000 -0.000005 -0.000001 0.000000 0.000001 -0.000004 -0.039192 -0.011488 0.008390 0.000000 0.000002 0.000001 -0.000001 0.000002 -0.000003 -0.000001 -0.000002 -0.000000 0.000003 -0.000004 0.000002 -0.043421 0.002443 0.002845 0.000000 0.000002 -0.000001 -0.000003 0.000004 0.000001 -0.000002 0.000000 0.000000 0.000002 -0.000000 -0.000000 0.000000 0.000000 -0.000000 -2.137643 0.700877 -8.723606 -99.255995 -0.669748 -4.820401 65.786593 0.374636 -3.780451 -0.000002 -0.000001 0.000002 -0.000001 0.000001 -0.000001 0.000000 -0.000001 0.000002 -0.038000 -0.085200 0.016200 0.000000 0.000001 0.000001 -0.000000 0.000000 -0.000000 -2.066523 0.690714 -7.490294 -106.355300 1.095034 9.867923 69.866975 1.838181 -18.891265 -0.000007 -0.000002 0.000000 0.000001 0.000003 -0.000001 0.000003 0.000002 -0.000000 0.038000 -0.085200 0.016200 -0.000003 -0.000000 0.000002 
